<svg width="64" height="64" viewBox="0 0 64 64" fill="none" xmlns="http://www.w3.org/2000/svg">
<path d="M10.8335 40.625V10.8333C10.8335 9.33756 12.0461 8.125 13.5418 8.125H43.3335C49.3166 8.125 54.1668 12.9753 54.1668 18.9583V40.625C54.1668 48.1039 48.104 54.1667 40.6252 54.1667H24.3752C16.8963 54.1667 10.8335 48.1038 10.8335 40.625Z" stroke="#1C9CDC" stroke-width="2.70833" stroke-linecap="round"/>
<path d="M37.9168 43.3333L32.5002 46.0417L27.0835 43.3333M24.3752 29.7917H27.0835C28.5793 29.7917 29.7918 28.5791 29.7918 27.0833V27.0833C29.7918 25.5876 28.5793 24.375 27.0835 24.375H24.3752C21.3836 24.375 18.9585 26.8001 18.9585 29.7917V29.7917C18.9585 32.7832 21.3836 35.2083 24.3752 35.2083H27.0835C28.5793 35.2083 29.7918 33.9958 29.7918 32.5V32.5M41.9793 29.7917H44.6877C46.1834 29.7917 47.396 28.5791 47.396 27.0833V27.0833C47.396 25.5876 46.1838 24.375 44.688 24.375C43.7864 24.375 42.8637 24.375 41.9787 24.375C38.9871 24.375 36.5627 26.8001 36.5627 29.7917V29.7917C36.5627 32.7832 38.9878 35.2083 41.9793 35.2083H44.6877C46.1834 35.2083 47.396 33.9958 47.396 32.5V32.5" stroke="#1C9CDC" stroke-width="2.70833" stroke-linecap="round"/>
<path d="M16.2502 14.8958C15.5023 14.8958 14.896 14.2896 14.896 13.5417C14.896 12.7938 15.5023 12.1875 16.2502 12.1875C16.998 12.1875 17.6043 12.7938 17.6043 13.5417C17.6043 14.2896 16.998 14.8958 16.2502 14.8958Z" stroke="#1C9CDC" stroke-width="1.35417" stroke-linecap="round"/>
</svg>
